<?xml version="1.0" encoding="UTF-8"?>
<svg id="Calque_2" data-name="Calque 2" xmlns="http://www.w3.org/2000/svg" viewBox="0 0 152.59 239.68">
  <defs>
    <style>
      .cls-1 {
        fill: #114dc6;
        stroke-width: 0px;
      }
    </style>
  </defs>
  <path class="cls-1" d="M26.09,36.9s40.54,15.17,26.52,39.42c-5.13,8.87-14.88,14.13-25.12,13.95-9.54-.17-20.83-4.2-25.65-20-1.12-3.66-1.67-7.5-1.82-11.35C-.4,48.06,7.23,7.9,57.92.96c3.46-.57,45.75-6.54,76.65,20.14,7.94,6.86,13.99,15.73,16.75,25.85,3.56,13.07.65,38.07-20.87,57.34-7.83,7.01-17.43,11.29-26.11,17.2-11.75,8-29.4,21.06-29.89,47.64-3.58.66-12.9,0-12.9,0,0,0-1.65-23.07,4.85-37.04,6.38-14.28,29.36-41.71,29.13-70.32,0-1.32-.19-2.62-.24-3.94-.25-6.97-2.25-25.13-17.51-33.76-3.77-2.13-7.98-3.32-12.28-3.75-8.35-.84-28.02-1.81-39.37,16.58h-.01Z"/>
  <ellipse class="cls-1" cx="68.12" cy="219.71" rx="22.69" ry="19.97"/>
</svg>