<?xml version="1.0" encoding="UTF-8"?>
<svg id="Calque_2" data-name="Calque 2" xmlns="http://www.w3.org/2000/svg" viewBox="0 0 298.17 298.17">
  <defs>
    <style>
      .cls-1 {
        fill: #fff;
        stroke: #114dc6;
        stroke-miterlimit: 10;
      }

      .cls-2 {
        fill: #114dc6;
        stroke-width: 0px;
      }
    </style>
  </defs>
  <circle class="cls-1" cx="149.09" cy="149.09" r="148.59"/>
  <g>
    <path class="cls-2" d="M100.73,73.14s37.12,13.89,24.28,36.09c-4.7,8.12-13.62,12.93-23,12.77-8.74-.15-19.07-3.84-23.49-18.32-1.03-3.38-1.53-6.87-1.67-10.4-.38-9.95,6.61-46.72,53.01-53.06,3.17-.52,41.89-5.99,70.17,18.44,7.27,6.28,12.8,14.4,15.33,23.66,3.26,11.97.59,34.86-19.11,52.5-7.17,6.42-15.96,10.33-23.91,15.75-10.75,7.33-26.91,19.28-27.37,43.62-3.27.61-11.81,0-11.81,0,0,0-1.51-21.12,4.44-33.92,5.84-13.07,26.88-38.19,26.67-64.38,0-1.21-.17-2.4-.22-3.61-.23-6.38-2.06-23.01-16.03-30.91-3.45-1.95-7.31-3.04-11.24-3.44-7.64-.77-25.66-1.65-36.05,15.18h-.01Z"/>
    <ellipse class="cls-2" cx="139.23" cy="240.52" rx="20.77" ry="18.28"/>
  </g>
</svg>