<?xml version="1.0" encoding="UTF-8"?>
<svg id="Calque_2" data-name="Calque 2" xmlns="http://www.w3.org/2000/svg" viewBox="0 0 295.7 295.7">
  <defs>
    <style>
      .cls-1 {
        fill: #114dc6;
      }

      .cls-1, .cls-2 {
        stroke-width: 0px;
      }

      .cls-2 {
        fill: #fff;
      }
    </style>
  </defs>
  <circle class="cls-2" cx="147.85" cy="147.85" r="147.85"/>
  <g>
    <path class="cls-1" d="M99.74,72.28s36.94,13.82,24.16,35.92c-4.67,8.08-13.55,12.87-22.89,12.71-8.7-.15-18.98-3.83-23.37-18.22-1.02-3.36-1.52-6.84-1.66-10.35-.38-9.9,6.57-46.49,52.75-52.8,3.15-.52,41.68-5.96,69.83,18.35,7.23,6.25,12.74,14.33,15.26,23.55,3.25,11.91.59,34.69-19.01,52.24-7.13,6.39-15.88,10.28-23.79,15.67-10.7,7.29-26.78,19.19-27.23,43.41-3.26.6-11.76,0-11.76,0,0,0-1.51-21.02,4.42-33.75,5.81-13.01,26.75-38,26.54-64.06,0-1.21-.17-2.39-.22-3.59-.23-6.35-2.05-22.9-15.95-30.76-3.43-1.94-7.27-3.03-11.19-3.42-7.61-.77-25.53-1.65-35.87,15.11h-.01Z"/>
    <ellipse class="cls-1" cx="138.04" cy="238.83" rx="20.67" ry="18.19"/>
  </g>
</svg>