<svg width="50" height="43" viewBox="0 0 50 43" fill="none" xmlns="http://www.w3.org/2000/svg">
<path d="M0 43L25 0L50 43H0ZM7.84091 38.4737H42.1591L25 9.05263L7.84091 38.4737ZM25 36.2105C25.6439 36.2105 26.1841 35.9933 26.6205 35.5587C27.0568 35.1242 27.2742 34.5871 27.2727 33.9474C27.2712 33.3076 27.053 32.7705 26.6182 32.336C26.1833 31.9015 25.6439 31.6842 25 31.6842C24.3561 31.6842 23.8167 31.9015 23.3818 32.336C22.947 32.7705 22.7288 33.3076 22.7273 33.9474C22.7258 34.5871 22.9439 35.125 23.3818 35.561C23.8197 35.997 24.3591 36.2135 25 36.2105ZM22.7273 29.4211H27.2727V18.1053H22.7273V29.4211Z" fill="#C40000"/>
</svg>
